<svg width="242" height="242" viewBox="0 0 242 242" fill="none" xmlns="http://www.w3.org/2000/svg">
<g clip-path="url(#clip0_2_12)">
<rect x="52" y="13" width="140" height="167" fill="#3E3E3E"/>
<path d="M106.635 241.845C83.9823 240.212 61.5933 234.511 47.8623 226.877C40.0411 222.53 34.0825 217.186 31.7443 212.424L30.3531 209.591V120.714V31.8377L31.4539 29.6025C36.3733 19.6149 52.0734 10.6109 73.9899 5.20842C81.4295 3.37441 92.1696 1.54802 100.932 0.627035C109.878 -0.313653 133.593 -0.170534 142.518 0.8794C166.238 3.6662 186.423 9.90516 198.862 18.2953C203.659 21.5308 208.581 26.708 210.249 30.2716L211.678 33.327L211.556 121.935L211.434 210.543L210.286 212.874C209.655 214.156 207.748 216.679 206.049 218.48C195.706 229.445 173.52 237.555 144.42 241.011C138.488 241.716 112.72 242.284 106.635 241.845ZM148.38 165.69C148.293 165.463 144.906 162.446 140.855 158.986C136.803 155.526 133.313 152.532 133.1 152.333C132.887 152.134 133.635 151.431 134.764 150.769C135.892 150.108 138.053 148.268 139.567 146.681C143.994 142.039 146.083 136.305 146.083 128.794C146.083 121.4 143.83 115.434 139.318 110.88C134.771 106.289 129.55 104.317 121.946 104.317C110.226 104.317 101.225 111.156 98.3526 122.243C97.3643 126.056 97.3696 133.762 98.3629 137.144C100.954 145.964 108.01 152.37 116.792 153.874C119.763 154.383 120.166 154.603 122.192 156.818C123.396 158.134 125.867 160.762 127.683 162.657L130.984 166.103H139.762C144.589 166.103 148.467 165.917 148.38 165.69ZM118.28 141.115C116.167 140.013 115.368 139.158 114.163 136.709C113.233 134.817 113.074 133.741 113.063 129.269C113.053 124.725 113.197 123.744 114.169 121.771C115.759 118.542 117.95 117.014 121.339 116.769C126.056 116.426 128.779 118.742 130.206 124.305C131.956 131.127 130.032 138.38 125.834 140.787C123.631 142.049 120.346 142.192 118.28 141.115ZM79.3765 153.777C88.5787 152.032 93.8024 146.681 93.8024 138.999C93.8024 132.183 90.4299 128.212 81.109 124.051C75.7733 121.669 73.8407 120.174 73.8407 118.427C73.8407 116.979 75.6748 115.393 77.8099 114.994C79.8947 114.605 85.4239 115.565 88.6891 116.884L91.426 117.99V111.931V105.873L88.4555 105.214C86.6196 104.807 82.7619 104.562 78.3558 104.575C72.1147 104.575 70.8926 104.727 68.544 105.659C61.6834 108.383 58.4279 113.022 58.48 120.001C58.5287 126.535 61.9753 130.61 70.5532 134.276C75.6144 136.439 77.643 138.087 77.643 140.033C77.643 144.17 70.7508 144.679 63.4536 141.081C61.4552 140.096 59.6597 139.21 59.4637 139.111C59.2677 139.013 59.1073 141.843 59.1073 145.4C59.1073 151.839 59.1141 151.87 60.2799 152.314C64.6697 153.983 74.3721 154.727 79.3765 153.777ZM184.58 147.805V142.339H176.263H167.945V123.566V104.792H160.579H153.212V129.031V153.27H168.896H184.58V147.805ZM133.25 52.0246C147.889 51.0092 158.863 49.0922 168.519 45.8636C178.139 42.6471 183.822 38.7551 185.093 34.5125C185.583 32.8776 185.548 32.2574 184.864 30.4649C181.794 22.4288 164.65 16.2546 138.452 13.7513C127.245 12.6802 106.865 13.0274 96.1794 14.4708C79.8754 16.6737 66.6438 20.7655 60.7605 25.424C48.8593 34.8481 61.4449 45.2135 90.7133 50.0922C103.404 52.2076 119.846 52.9545 133.25 52.0246Z" fill="#D58936"/>
</g>
<defs>
<clipPath id="clip0_2_12">
<rect width="242" height="242" fill="white"/>
</clipPath>
</defs>
</svg>
