<svg width="200" height="203" viewBox="0 0 200 203" fill="none" xmlns="http://www.w3.org/2000/svg">
<g clip-path="url(#clip0_2_19)">
<rect x="10" y="27" width="181" height="149" fill="#8E8E8E"/>
<path d="M41.9442 125.041L53.7292 136.966L89.085 101.19L53.7292 65.414L41.9442 77.3394L65.5143 101.19L41.9442 125.041Z" fill="black"/>
<path d="M125 118.056H91.6666V134.921H125V118.056Z" fill="black"/>
<path fill-rule="evenodd" clip-rule="evenodd" d="M16.6667 16.8651C7.46193 16.8651 0 24.4158 0 33.7302V168.651C0 177.965 7.46192 185.516 16.6667 185.516H183.333C192.538 185.516 200 177.965 200 168.651V33.7302C200 24.4158 192.538 16.8651 183.333 16.8651H16.6667ZM183.333 33.7302H16.6667V168.651H183.333V33.7302Z" fill="black"/>
</g>
<defs>
<clipPath id="clip0_2_19">
<rect width="200" height="202.381" fill="white"/>
</clipPath>
</defs>
</svg>
